<svg width="1440" height="1024" viewBox="0 0 1440 1024" fill="none" xmlns="http://www.w3.org/2000/svg">
<rect width="1440" height="1024" rx="50" fill="url(#paint0_linear_14_91)"/>
<path fill-rule="evenodd" clip-rule="evenodd" d="M525.545 268.546C577.118 216.973 647.065 188 719.999 188H720.011C770.389 188.12 819.766 202.077 862.752 228.346C864.105 229.172 864.985 230.591 865.125 232.17C865.265 233.75 864.648 235.301 863.462 236.353L567.68 498.638L674.05 470.137C676.003 469.614 678.08 470.318 679.311 471.923C680.542 473.527 680.685 475.715 679.674 477.467L562.181 680.969C561.465 682.208 560.253 683.081 558.851 683.368C557.45 683.654 555.992 683.326 554.848 682.467C520.795 656.891 493.148 623.754 474.085 585.671C455.023 547.587 445.066 505.596 445 463.008L445 463C445 390.066 473.973 320.118 525.545 268.546ZM719.994 198C649.713 198.002 582.312 225.921 532.617 275.617C482.92 325.313 455.001 392.715 455 462.996C455.064 504.035 464.659 544.497 483.028 581.195C500.553 616.208 525.61 646.882 556.372 671.03L664.978 482.92L549.81 513.779C547.57 514.379 545.211 513.361 544.112 511.319C543.014 509.277 543.463 506.747 545.198 505.209L851.703 233.415C811.677 210.34 766.273 198.112 719.994 198ZM881.15 242.633C882.552 242.346 884.009 242.674 885.153 243.533C919.206 269.11 946.853 302.246 965.915 340.33C984.977 378.414 994.934 420.404 995 462.992V463C995 499.114 987.887 534.874 974.067 568.238C960.247 601.603 939.99 631.919 914.454 657.455C888.918 682.991 858.602 703.247 825.238 717.067C791.873 730.888 756.113 738.001 719.999 738H719.987C669.611 737.88 620.235 723.923 577.249 697.655C575.896 696.828 575.016 695.409 574.876 693.83C574.736 692.251 575.353 690.699 576.539 689.647L872.321 427.363L765.952 455.865C763.998 456.389 761.922 455.684 760.691 454.08C759.459 452.475 759.316 450.287 760.327 448.536L877.82 245.031C878.536 243.792 879.748 242.919 881.15 242.633ZM883.629 254.97L775.023 443.082L890.191 412.221C892.431 411.621 894.79 412.64 895.889 414.682C896.987 416.724 896.538 419.253 894.803 420.792L588.298 692.585C628.326 715.661 673.73 727.89 720.011 728C754.808 727.999 789.263 721.145 821.411 707.829C853.562 694.511 882.776 674.991 907.383 650.384C931.991 625.776 951.511 596.563 964.828 564.411C978.145 532.262 984.999 497.806 985 463.008C984.936 421.969 975.342 381.505 956.973 344.806C939.447 309.792 914.391 279.118 883.629 254.97Z" fill="#FAFAFA"/>
<path d="M492.644 786.308H505.982C508.394 786.308 510.572 786.704 512.516 787.496C514.496 788.288 516.17 789.476 517.538 791.06C518.942 792.608 520.022 794.57 520.778 796.946C521.534 799.286 521.912 802.022 521.912 805.154C521.912 808.286 521.534 811.04 520.778 813.416C520.022 815.756 518.942 817.718 517.538 819.302C516.17 820.85 514.496 822.02 512.516 822.812C510.572 823.604 508.394 824 505.982 824H492.644V786.308ZM505.982 818.6C508.79 818.6 511.058 817.718 512.786 815.954C514.514 814.19 515.378 811.598 515.378 808.178V802.13C515.378 798.71 514.514 796.118 512.786 794.354C511.058 792.59 508.79 791.708 505.982 791.708H498.746V818.6H505.982ZM529.073 795.92H534.959V827.78C534.959 829.94 534.401 831.65 533.285 832.91C532.205 834.17 530.477 834.8 528.101 834.8H524.699V829.994H529.073V795.92ZM532.043 790.898C530.819 790.898 529.919 790.61 529.343 790.034C528.803 789.458 528.533 788.72 528.533 787.82V786.902C528.533 786.002 528.803 785.264 529.343 784.688C529.919 784.112 530.819 783.824 532.043 783.824C533.267 783.824 534.149 784.112 534.689 784.688C535.229 785.264 535.499 786.002 535.499 786.902V787.82C535.499 788.72 535.229 789.458 534.689 790.034C534.149 790.61 533.267 790.898 532.043 790.898ZM563.938 824C562.39 824 561.202 823.568 560.374 822.704C559.546 821.804 559.042 820.67 558.862 819.302H558.592C558.052 821.066 557.062 822.398 555.622 823.298C554.182 824.198 552.436 824.648 550.384 824.648C547.468 824.648 545.218 823.892 543.634 822.38C542.086 820.868 541.312 818.834 541.312 816.278C541.312 813.47 542.32 811.364 544.336 809.96C546.388 808.556 549.376 807.854 553.3 807.854H558.376V805.478C558.376 803.75 557.908 802.418 556.972 801.482C556.036 800.546 554.578 800.078 552.598 800.078C550.942 800.078 549.592 800.438 548.548 801.158C547.504 801.878 546.622 802.796 545.902 803.912L542.392 800.726C543.328 799.142 544.642 797.846 546.334 796.838C548.026 795.794 550.24 795.272 552.976 795.272C556.612 795.272 559.402 796.118 561.346 797.81C563.29 799.502 564.262 801.932 564.262 805.1V819.194H567.232V824H563.938ZM552.058 820.166C553.894 820.166 555.406 819.77 556.594 818.978C557.782 818.15 558.376 817.052 558.376 815.684V811.634H553.408C549.34 811.634 547.306 812.894 547.306 815.414V816.386C547.306 817.646 547.72 818.6 548.548 819.248C549.412 819.86 550.582 820.166 552.058 820.166ZM573.001 824V795.92H578.887V800.564H579.157C579.769 799.052 580.687 797.792 581.911 796.784C583.171 795.776 584.881 795.272 587.041 795.272C589.921 795.272 592.153 796.226 593.737 798.134C595.357 800.006 596.167 802.688 596.167 806.18V824H590.281V806.936C590.281 802.544 588.517 800.348 584.989 800.348C584.233 800.348 583.477 800.456 582.721 800.672C582.001 800.852 581.353 801.14 580.777 801.536C580.201 801.932 579.733 802.436 579.373 803.048C579.049 803.66 578.887 804.38 578.887 805.208V824H573.001ZM628.949 826.646C628.949 829.562 627.833 831.758 625.601 833.234C623.369 834.71 619.733 835.448 614.693 835.448C612.389 835.448 610.427 835.286 608.807 834.962C607.223 834.674 605.909 834.242 604.865 833.666C603.857 833.09 603.119 832.388 602.651 831.56C602.183 830.732 601.949 829.778 601.949 828.698C601.949 827.15 602.363 825.944 603.191 825.08C604.055 824.216 605.243 823.622 606.755 823.298V822.704C604.631 822.02 603.569 820.58 603.569 818.384C603.569 816.944 604.055 815.846 605.027 815.09C605.999 814.298 607.169 813.74 608.537 813.416V813.2C606.881 812.408 605.603 811.31 604.703 809.906C603.839 808.466 603.407 806.792 603.407 804.884C603.407 802.004 604.361 799.682 606.269 797.918C608.213 796.154 610.985 795.272 614.585 795.272C616.565 795.272 618.257 795.56 619.661 796.136V795.38C619.661 794.12 619.949 793.148 620.525 792.464C621.137 791.744 622.073 791.384 623.333 791.384H627.653V796.136H621.929V797.27C623.189 798.098 624.161 799.178 624.845 800.51C625.529 801.806 625.871 803.264 625.871 804.884C625.871 807.728 624.899 810.032 622.955 811.796C621.011 813.524 618.239 814.388 614.639 814.388C613.271 814.388 612.047 814.244 610.967 813.956C610.247 814.208 609.617 814.568 609.077 815.036C608.537 815.468 608.267 816.044 608.267 816.764C608.267 817.52 608.609 818.06 609.293 818.384C609.977 818.708 610.949 818.87 612.209 818.87H619.121C622.577 818.87 625.079 819.572 626.627 820.976C628.175 822.344 628.949 824.234 628.949 826.646ZM623.441 827.294C623.441 826.322 623.063 825.548 622.307 824.972C621.587 824.396 620.255 824.108 618.311 824.108H608.807C607.511 824.864 606.863 825.944 606.863 827.348C606.863 828.5 607.313 829.418 608.213 830.102C609.149 830.822 610.715 831.182 612.911 831.182H616.583C621.155 831.182 623.441 829.886 623.441 827.294ZM614.639 810.122C616.367 810.122 617.699 809.744 618.635 808.988C619.607 808.196 620.093 806.99 620.093 805.37V804.29C620.093 802.67 619.607 801.482 618.635 800.726C617.699 799.934 616.367 799.538 614.639 799.538C612.911 799.538 611.561 799.934 610.589 800.726C609.653 801.482 609.185 802.67 609.185 804.29V805.37C609.185 806.99 609.653 808.196 610.589 808.988C611.561 809.744 612.911 810.122 614.639 810.122ZM644.029 824.648C642.085 824.648 640.303 824.306 638.683 823.622C637.099 822.938 635.749 821.966 634.633 820.706C633.517 819.41 632.653 817.862 632.041 816.062C631.429 814.226 631.123 812.192 631.123 809.96C631.123 807.728 631.429 805.712 632.041 803.912C632.653 802.076 633.517 800.528 634.633 799.268C635.749 797.972 637.099 796.982 638.683 796.298C640.303 795.614 642.085 795.272 644.029 795.272C645.973 795.272 647.737 795.614 649.321 796.298C650.941 796.982 652.309 797.972 653.425 799.268C654.541 800.528 655.405 802.076 656.017 803.912C656.629 805.712 656.935 807.728 656.935 809.96C656.935 812.192 656.629 814.226 656.017 816.062C655.405 817.862 654.541 819.41 653.425 820.706C652.309 821.966 650.941 822.938 649.321 823.622C647.737 824.306 645.973 824.648 644.029 824.648ZM644.029 819.788C646.045 819.788 647.665 819.176 648.889 817.952C650.113 816.692 650.725 814.82 650.725 812.336V807.584C650.725 805.1 650.113 803.246 648.889 802.022C647.665 800.762 646.045 800.132 644.029 800.132C642.013 800.132 640.393 800.762 639.169 802.022C637.945 803.246 637.333 805.1 637.333 807.584V812.336C637.333 814.82 637.945 816.692 639.169 817.952C640.393 819.176 642.013 819.788 644.029 819.788ZM676.687 786.308H693.373C696.505 786.308 698.953 787.19 700.717 788.954C702.517 790.718 703.417 793.076 703.417 796.028C703.417 797.432 703.219 798.638 702.823 799.646C702.427 800.618 701.923 801.428 701.311 802.076C700.699 802.688 699.997 803.156 699.205 803.48C698.413 803.768 697.639 803.948 696.883 804.02V804.344C697.639 804.38 698.467 804.56 699.367 804.884C700.303 805.208 701.167 805.73 701.959 806.45C702.751 807.134 703.417 808.034 703.957 809.15C704.497 810.23 704.767 811.562 704.767 813.146C704.767 814.658 704.515 816.08 704.011 817.412C703.543 818.744 702.877 819.896 702.013 820.868C701.149 821.84 700.123 822.614 698.935 823.19C697.747 823.73 696.451 824 695.047 824H676.687V786.308ZM682.789 818.762H693.265C694.849 818.762 696.091 818.348 696.991 817.52C697.891 816.692 698.341 815.504 698.341 813.956V812.12C698.341 810.572 697.891 809.384 696.991 808.556C696.091 807.728 694.849 807.314 693.265 807.314H682.789V818.762ZM682.789 802.238H692.239C693.751 802.238 694.921 801.86 695.749 801.104C696.577 800.312 696.991 799.196 696.991 797.756V796.028C696.991 794.588 696.577 793.49 695.749 792.734C694.921 791.942 693.751 791.546 692.239 791.546H682.789V802.238ZM722.867 824.648C720.923 824.648 719.141 824.306 717.521 823.622C715.937 822.938 714.587 821.966 713.471 820.706C712.355 819.41 711.491 817.862 710.879 816.062C710.267 814.226 709.961 812.192 709.961 809.96C709.961 807.728 710.267 805.712 710.879 803.912C711.491 802.076 712.355 800.528 713.471 799.268C714.587 797.972 715.937 796.982 717.521 796.298C719.141 795.614 720.923 795.272 722.867 795.272C724.811 795.272 726.575 795.614 728.159 796.298C729.779 796.982 731.147 797.972 732.263 799.268C733.379 800.528 734.243 802.076 734.855 803.912C735.467 805.712 735.773 807.728 735.773 809.96C735.773 812.192 735.467 814.226 734.855 816.062C734.243 817.862 733.379 819.41 732.263 820.706C731.147 821.966 729.779 822.938 728.159 823.622C726.575 824.306 724.811 824.648 722.867 824.648ZM722.867 819.788C724.883 819.788 726.503 819.176 727.727 817.952C728.951 816.692 729.563 814.82 729.563 812.336V807.584C729.563 805.1 728.951 803.246 727.727 802.022C726.503 800.762 724.883 800.132 722.867 800.132C720.851 800.132 719.231 800.762 718.007 802.022C716.783 803.246 716.171 805.1 716.171 807.584V812.336C716.171 814.82 716.783 816.692 718.007 817.952C719.231 819.176 720.851 819.788 722.867 819.788ZM748.325 824C746.309 824 744.797 823.496 743.789 822.488C742.817 821.444 742.331 820.004 742.331 818.168V784.04H748.217V819.194H752.105V824H748.325ZM765.242 824C763.19 824 761.642 823.478 760.598 822.434C759.554 821.354 759.032 819.842 759.032 817.898V800.726H754.658V795.92H757.034C758.006 795.92 758.672 795.704 759.032 795.272C759.428 794.84 759.626 794.138 759.626 793.166V788.252H764.918V795.92H770.804V800.726H764.918V819.194H770.372V824H765.242ZM804.368 791.708V824H798.266V791.708H787.034V786.308H815.6V791.708H804.368ZM821.116 784.04H827.002V800.564H827.272C827.884 799.052 828.802 797.792 830.026 796.784C831.286 795.776 832.996 795.272 835.156 795.272C838.036 795.272 840.268 796.226 841.852 798.134C843.472 800.006 844.282 802.688 844.282 806.18V824H838.396V806.882C838.396 802.526 836.632 800.348 833.104 800.348C832.348 800.348 831.592 800.456 830.836 800.672C830.116 800.852 829.468 801.14 828.892 801.536C828.316 801.932 827.848 802.436 827.488 803.048C827.164 803.66 827.002 804.362 827.002 805.154V824H821.116V784.04ZM863.457 824.648C861.441 824.648 859.641 824.306 858.057 823.622C856.473 822.938 855.123 821.966 854.007 820.706C852.891 819.41 852.027 817.862 851.415 816.062C850.839 814.226 850.551 812.192 850.551 809.96C850.551 807.728 850.839 805.712 851.415 803.912C852.027 802.076 852.891 800.528 854.007 799.268C855.123 797.972 856.473 796.982 858.057 796.298C859.641 795.614 861.441 795.272 863.457 795.272C865.509 795.272 867.309 795.632 868.857 796.352C870.441 797.072 871.755 798.08 872.799 799.376C873.843 800.636 874.617 802.112 875.121 803.804C875.661 805.496 875.931 807.314 875.931 809.258V811.472H856.653V812.39C856.653 814.55 857.283 816.332 858.543 817.736C859.839 819.104 861.675 819.788 864.051 819.788C865.779 819.788 867.237 819.41 868.425 818.654C869.613 817.898 870.621 816.872 871.449 815.576L874.905 818.978C873.861 820.706 872.349 822.092 870.369 823.136C868.389 824.144 866.085 824.648 863.457 824.648ZM863.457 799.862C862.449 799.862 861.513 800.042 860.649 800.402C859.821 800.762 859.101 801.266 858.489 801.914C857.913 802.562 857.463 803.336 857.139 804.236C856.815 805.136 856.653 806.126 856.653 807.206V807.584H869.721V807.044C869.721 804.884 869.163 803.156 868.047 801.86C866.931 800.528 865.401 799.862 863.457 799.862ZM882.446 824V795.92H888.332V800.564H888.602C888.89 799.844 889.232 799.16 889.628 798.512C890.06 797.864 890.564 797.306 891.14 796.838C891.752 796.334 892.454 795.956 893.246 795.704C894.074 795.416 895.028 795.272 896.108 795.272C898.016 795.272 899.708 795.74 901.184 796.676C902.66 797.612 903.74 799.052 904.424 800.996H904.586C905.09 799.412 906.062 798.062 907.502 796.946C908.942 795.83 910.796 795.272 913.064 795.272C915.872 795.272 918.05 796.226 919.598 798.134C921.146 800.006 921.92 802.688 921.92 806.18V824H916.034V806.882C916.034 804.722 915.62 803.102 914.792 802.022C913.964 800.906 912.65 800.348 910.85 800.348C910.094 800.348 909.374 800.456 908.69 800.672C908.006 800.852 907.394 801.14 906.854 801.536C906.35 801.932 905.936 802.436 905.612 803.048C905.288 803.66 905.126 804.362 905.126 805.154V824H899.24V806.882C899.24 802.526 897.53 800.348 894.11 800.348C893.39 800.348 892.67 800.456 891.95 800.672C891.266 800.852 890.654 801.14 890.114 801.536C889.574 801.932 889.142 802.436 888.818 803.048C888.494 803.66 888.332 804.362 888.332 805.154V824H882.446ZM941.082 824.648C939.066 824.648 937.266 824.306 935.682 823.622C934.098 822.938 932.748 821.966 931.632 820.706C930.516 819.41 929.652 817.862 929.04 816.062C928.464 814.226 928.176 812.192 928.176 809.96C928.176 807.728 928.464 805.712 929.04 803.912C929.652 802.076 930.516 800.528 931.632 799.268C932.748 797.972 934.098 796.982 935.682 796.298C937.266 795.614 939.066 795.272 941.082 795.272C943.134 795.272 944.934 795.632 946.482 796.352C948.066 797.072 949.38 798.08 950.424 799.376C951.468 800.636 952.242 802.112 952.746 803.804C953.286 805.496 953.556 807.314 953.556 809.258V811.472H934.278V812.39C934.278 814.55 934.908 816.332 936.168 817.736C937.464 819.104 939.3 819.788 941.676 819.788C943.404 819.788 944.862 819.41 946.05 818.654C947.238 817.898 948.246 816.872 949.074 815.576L952.53 818.978C951.486 820.706 949.974 822.092 947.994 823.136C946.014 824.144 943.71 824.648 941.082 824.648ZM941.082 799.862C940.074 799.862 939.138 800.042 938.274 800.402C937.446 800.762 936.726 801.266 936.114 801.914C935.538 802.562 935.088 803.336 934.764 804.236C934.44 805.136 934.278 806.126 934.278 807.206V807.584H947.346V807.044C947.346 804.884 946.788 803.156 945.672 801.86C944.556 800.528 943.026 799.862 941.082 799.862Z" fill="#FAFAFA"/>
<defs>
<linearGradient id="paint0_linear_14_91" x1="1425.5" y1="1005" x2="7.16122e-06" y2="14.9999" gradientUnits="userSpaceOnUse">
<stop stop-color="#FF000B"/>
<stop offset="1" stop-color="#FFC013"/>
</linearGradient>
</defs>
</svg>
